<?xml version="1.0" standalone="no"?>
<!DOCTYPE svg PUBLIC "-//W3C//DTD SVG 20010904//EN"
 "http://www.w3.org/TR/2001/REC-SVG-20010904/DTD/svg10.dtd">
<svg version="1.0" xmlns="http://www.w3.org/2000/svg"
 width="314.000000pt" height="314.000000pt" viewBox="0 0 314.000000 314.000000"
 preserveAspectRatio="xMidYMid meet">
<metadata>
Created by potrace 1.11, written by Peter Selinger 2001-2013
</metadata>
<g transform="translate(0.000000,314.000000) scale(0.100000,-0.100000)"
fill="#000000" stroke="none">
<path d="M335 2495 c-179 -38 -299 -162 -324 -335 -11 -73 -8 -1164 3 -1220
13 -62 62 -154 105 -197 50 -50 130 -90 215 -108 83 -17 314 -17 398 0 172 36
276 134 320 301 10 38 13 181 12 619 0 314 -4 590 -8 614 -30 172 -145 288
-323 325 -85 18 -316 19 -398 1z m360 -205 c51 -20 96 -61 116 -104 17 -39 19
-76 19 -621 0 -652 2 -632 -75 -690 -51 -40 -110 -52 -239 -49 -155 2 -212 29
-258 119 -20 38 -21 56 -21 616 0 456 3 584 13 611 18 46 81 103 132 120 51
17 268 16 313 -2z"/>
<path d="M2120 1565 l0 -945 110 0 110 0 1 838 c1 730 3 831 15 787 7 -27 16
-61 18 -75 3 -14 7 -34 10 -45 3 -11 33 -132 67 -270 33 -137 78 -322 100
-409 22 -88 41 -169 44 -180 5 -23 20 -88 101 -418 l56 -228 193 0 194 0 0
945 0 945 -110 0 -109 0 -1 -837 -1 -838 -52 210 c-29 116 -99 397 -155 625
-88 362 -109 447 -116 470 0 3 -21 87 -45 188 l-44 182 -193 0 -193 0 0 -945z"/>
<path d="M1444 755 l-1 -135 134 0 c73 0 133 3 134 8 3 28 4 239 1 250 -3 9
-39 12 -136 12 l-132 0 0 -135z"/>
</g>
</svg>
